<svg width="938" height="761" viewBox="0 0 938 761" fill="none" xmlns="http://www.w3.org/2000/svg">
<path d="M100.5 2.2267C31.7 -3.3733 26 11.2268 7.5 25.2267L1 666.727C20.1667 664.727 51.0809 720.846 155 737.227C256.5 753.227 178 743.727 301.5 759.727C301.5 759.727 371 757.227 537 717.727C703 678.227 755.099 681.227 784 681.227C817.5 681.227 918.578 715.439 929.5 614.227C937 544.727 937 563.727 937 487.727C937 393.906 880 275.727 849.5 202.727C819 129.727 800.5 68.7267 596.5 34.2267C563.785 28.6939 423.5 44.2267 374 44.2267C324.5 44.2267 186.5 9.2267 100.5 2.2267Z" fill="#D9D9D9" stroke="#D9D9D9" stroke-dasharray="2 4 6 8"/>
</svg>
